<svg width="85" height="40" viewBox="0 0 85 40" fill="none" xmlns="http://www.w3.org/2000/svg">
<path d="M8.6001 26.65V24.75H10.5001V18.1C10.5001 16.7858 10.8959 15.6181 11.6876 14.5969C12.4793 13.5756 13.5084 12.9067 14.7751 12.59V11.925C14.7751 11.5292 14.9136 11.1927 15.1907 10.9156C15.4678 10.6385 15.8043 10.5 16.2001 10.5C16.5959 10.5 16.9324 10.6385 17.2095 10.9156C17.4866 11.1927 17.6251 11.5292 17.6251 11.925V12.59C18.8918 12.9067 19.9209 13.5756 20.7126 14.5969C21.5043 15.6181 21.9001 16.7858 21.9001 18.1V24.75H23.8001V26.65H8.6001ZM16.2001 29.5C15.6776 29.5 15.2303 29.314 14.8582 28.9419C14.4861 28.5698 14.3001 28.1225 14.3001 27.6H18.1001C18.1001 28.1225 17.9141 28.5698 17.542 28.9419C17.1699 29.314 16.7226 29.5 16.2001 29.5ZM12.4001 24.75H20.0001V18.1C20.0001 17.055 19.628 16.1604 18.8838 15.4163C18.1397 14.6721 17.2451 14.3 16.2001 14.3C15.1551 14.3 14.2605 14.6721 13.5163 15.4163C12.7722 16.1604 12.4001 17.055 12.4001 18.1V24.75Z" fill="#A1A1AA"/>
<path d="M63.935 29.5L63.555 26.46C63.3492 26.3808 63.1552 26.2858 62.9731 26.175C62.791 26.0642 62.6129 25.9454 62.4387 25.8187L59.6125 27.0062L57 22.4937L59.4463 20.6413C59.4304 20.5304 59.4225 20.4235 59.4225 20.3206C59.4225 20.2177 59.4225 20.1108 59.4225 20C59.4225 19.8892 59.4225 19.7823 59.4225 19.6794C59.4225 19.5765 59.4304 19.4696 59.4463 19.3587L57 17.5062L59.6125 12.9937L62.4387 14.1812C62.6129 14.0546 62.795 13.9358 62.985 13.825C63.175 13.7142 63.365 13.6192 63.555 13.54L63.935 10.5H69.16L69.54 13.54C69.7458 13.6192 69.9398 13.7142 70.1219 13.825C70.304 13.9358 70.4821 14.0546 70.6562 14.1812L73.4825 12.9937L76.095 17.5062L73.6487 19.3587C73.6646 19.4696 73.6725 19.5765 73.6725 19.6794C73.6725 19.7823 73.6725 19.8892 73.6725 20C73.6725 20.1108 73.6725 20.2177 73.6725 20.3206C73.6725 20.4235 73.6567 20.5304 73.625 20.6413L76.0713 22.4937L73.4588 27.0062L70.6562 25.8187C70.4821 25.9454 70.3 26.0642 70.11 26.175C69.92 26.2858 69.73 26.3808 69.54 26.46L69.16 29.5H63.935ZM65.5975 27.6H67.4737L67.8062 25.0825C68.2971 24.9558 68.7523 24.7698 69.1719 24.5244C69.5915 24.279 69.9754 23.9821 70.3237 23.6337L72.675 24.6075L73.6013 22.9925L71.5587 21.4487C71.6379 21.2271 71.6933 20.9935 71.725 20.7481C71.7567 20.5027 71.7725 20.2533 71.7725 20C71.7725 19.7467 71.7567 19.4973 71.725 19.2519C71.6933 19.0065 71.6379 18.7729 71.5587 18.5513L73.6013 17.0075L72.675 15.3925L70.3237 16.39C69.9754 16.0258 69.5915 15.721 69.1719 15.4756C68.7523 15.2302 68.2971 15.0442 67.8062 14.9175L67.4975 12.4H65.6212L65.2888 14.9175C64.7979 15.0442 64.3427 15.2302 63.9231 15.4756C63.5035 15.721 63.1196 16.0179 62.7712 16.3663L60.42 15.3925L59.4937 17.0075L61.5363 18.5275C61.4571 18.765 61.4017 19.0025 61.37 19.24C61.3383 19.4775 61.3225 19.7308 61.3225 20C61.3225 20.2533 61.3383 20.4987 61.37 20.7362C61.4017 20.9737 61.4571 21.2112 61.5363 21.4487L59.4937 22.9925L60.42 24.6075L62.7712 23.61C63.1196 23.9742 63.5035 24.279 63.9231 24.5244C64.3427 24.7698 64.7979 24.9558 65.2888 25.0825L65.5975 27.6ZM66.595 23.325C67.5133 23.325 68.2971 23.0004 68.9462 22.3513C69.5954 21.7021 69.92 20.9183 69.92 20C69.92 19.0817 69.5954 18.2979 68.9462 17.6488C68.2971 16.9996 67.5133 16.675 66.595 16.675C65.6608 16.675 64.8731 16.9996 64.2319 17.6488C63.5906 18.2979 63.27 19.0817 63.27 20C63.27 20.9183 63.5906 21.7021 64.2319 22.3513C64.8731 23.0004 65.6608 23.325 66.595 23.325Z" fill="#A1A1AA"/>
</svg>
